<svg width="16" height="16" viewBox="0 0 16 16" fill="none" xmlns="http://www.w3.org/2000/svg">
<path d="M14.2016 3.19042C14.2016 2.24322 13.4304 1.47522 12.4864 1.47522C11.664 1.47522 10.976 2.05762 10.8096 2.82882H8.4288C8.1056 2.82882 7.8016 2.95362 7.5712 3.18402L2.1536 8.59842C1.9232 8.82882 1.7984 9.13282 1.7984 9.45602C1.7984 9.77922 1.9232 10.0832 2.1536 10.3136L5.3664 13.5264C5.5968 13.7568 5.9008 13.8816 6.224 13.8816C6.5472 13.8816 6.8512 13.7568 7.0816 13.5264L8.9568 11.6512C9.0528 11.5552 9.0528 11.4016 8.9568 11.3088C8.8608 11.2128 8.7072 11.2128 8.6144 11.3088L6.7392 13.184C6.4544 13.4688 5.9936 13.4688 5.712 13.184L2.496 9.97122C2.3584 9.83362 2.2816 9.65122 2.2816 9.45602C2.2816 9.26082 2.3584 9.07842 2.496 8.94082L7.9136 3.52642C8.0512 3.38882 8.2336 3.31202 8.4288 3.31202H10.7744C10.8032 3.72482 10.976 4.10882 11.2736 4.40322C11.3696 4.49922 11.5232 4.49922 11.616 4.40322C11.712 4.30722 11.712 4.15362 11.616 4.06082C11.4112 3.85602 11.2896 3.59362 11.2608 3.31202H11.6416C12.0416 3.31202 12.368 3.63842 12.368 4.03842V7.25122C12.368 7.44642 12.2912 7.62882 12.1536 7.76642L10.1536 9.76642C10.0576 9.86242 10.0576 10.016 10.1536 10.1088C10.2496 10.2048 10.4032 10.2048 10.496 10.1088L12.496 8.10882C12.7264 7.87842 12.8512 7.57442 12.8512 7.25122V4.86722C13.632 4.70082 14.2016 4.00962 14.2016 3.19042ZM12.8512 4.36802V4.04162C12.8512 3.37282 12.3072 2.82882 11.6384 2.82882H11.3056C11.4592 2.32642 11.9296 1.95842 12.4832 1.95842C13.1616 1.95842 13.7152 2.51202 13.7152 3.19042C13.7152 3.74402 13.36 4.21122 12.8512 4.36802Z" fill="white"/>
<path d="M5.13919 9.44321C5.23519 9.34721 5.23519 9.19361 5.13919 9.10081C5.04319 9.00481 4.88959 9.00481 4.79679 9.10081L4.21439 9.68321C4.1184 9.77921 4.1184 9.93281 4.21439 10.0256L5.65439 11.4656C5.70239 11.5136 5.76319 11.536 5.82719 11.536C5.89119 11.536 5.95199 11.5136 5.99999 11.4656C6.09599 11.3696 6.09599 11.216 5.99999 11.1232L5.43359 10.56L5.79839 10.1952C5.89439 10.0992 5.89439 9.94561 5.79839 9.85281C5.70239 9.75681 5.54879 9.75681 5.45599 9.85281L5.09119 10.2176L4.72639 9.85281L5.13919 9.44321Z" fill="white"/>
<path d="M8 9.36328C8.128 9.36328 8.2336 9.26408 8.24 9.13608C8.2496 9.00168 8.1472 8.88648 8.0128 8.88008L7.2128 8.82888C7.28 8.71368 7.3184 8.58248 7.3216 8.44488C7.328 8.23048 7.2512 8.03208 7.104 7.88488C6.8032 7.58408 6.304 7.59368 5.9936 7.90728L5.6096 8.29128C5.5136 8.38728 5.5136 8.54088 5.6096 8.63368L7.0496 10.0737C7.0976 10.1217 7.1584 10.1441 7.2224 10.1441C7.2864 10.1441 7.3472 10.1217 7.3952 10.0737C7.4912 9.97768 7.4912 9.82408 7.3952 9.73128L6.9664 9.30248L7.9872 9.36648C7.9904 9.36008 7.9936 9.36328 8 9.36328ZM6.336 8.24648C6.4576 8.12488 6.6528 8.11528 6.7616 8.22408C6.8128 8.27528 6.8416 8.34888 6.8384 8.42568C6.8352 8.50888 6.8 8.58888 6.7424 8.64968C6.6944 8.69768 6.6112 8.78408 6.5344 8.86088C6.4576 8.78728 6.3776 8.70408 6.3296 8.65928C6.2912 8.62088 6.2048 8.53448 6.128 8.45768L6.336 8.24648Z" fill="white"/>
<path d="M10.3616 7.10083L10.9696 6.49283C11.0656 6.39683 11.0656 6.24323 10.9696 6.15043C10.8736 6.05443 10.72 6.05443 10.6272 6.15043L10.192 6.58563L9.8144 6.20803L10.2048 5.81763C10.3008 5.72163 10.3008 5.56803 10.2048 5.47523C10.1088 5.37923 9.9552 5.37923 9.8624 5.47523L9.472 5.86563L9.0944 5.48803L9.5296 5.05283C9.6256 4.95683 9.6256 4.80323 9.5296 4.71043C9.4336 4.61443 9.28 4.61443 9.1872 4.71043L8.5792 5.31843C8.4832 5.41443 8.4832 5.56803 8.5792 5.66083L9.2992 6.38083L10.0192 7.10083C10.064 7.14563 10.1248 7.17123 10.192 7.17123C10.2592 7.17123 10.3136 7.14883 10.3616 7.10083Z" fill="white"/>
<path d="M8.78399 8.57919C8.84799 8.57919 8.90879 8.55359 8.95679 8.50879L9.56479 7.90079C9.66079 7.80479 9.66079 7.65119 9.56479 7.55839C9.46879 7.46239 9.31519 7.46239 9.22239 7.55839L8.78719 7.99359L8.40959 7.61599L8.79999 7.22559C8.89599 7.12959 8.89599 6.97599 8.79999 6.88319C8.70399 6.78719 8.55359 6.78719 8.45759 6.88319L8.06719 7.27359L7.68959 6.89599L8.12479 6.46079C8.22079 6.36479 8.22079 6.21119 8.12479 6.11839C8.02879 6.02239 7.87519 6.02239 7.78239 6.11839L7.17439 6.72639C7.07839 6.82239 7.07839 6.97599 7.17439 7.06879L8.61439 8.50879C8.65919 8.55359 8.71999 8.57919 8.78399 8.57919Z" fill="white"/>
<path d="M9.55518 10.4673C9.49118 10.4673 9.43038 10.4929 9.38238 10.5377C9.33758 10.5825 9.31198 10.6465 9.31198 10.7105C9.31198 10.7745 9.33758 10.8353 9.38238 10.8833C9.42718 10.9281 9.49118 10.9537 9.55518 10.9537C9.61918 10.9537 9.67998 10.9281 9.72798 10.8833C9.77278 10.8385 9.79838 10.7745 9.79838 10.7105C9.79838 10.6465 9.77278 10.5857 9.72798 10.5377C9.67998 10.4929 9.61918 10.4673 9.55518 10.4673Z" fill="white"/>
</svg>
