<?xml version="1.0" encoding="utf-8"?>
<!-- Generator: Adobe Illustrator 23.0.5, SVG Export Plug-In . SVG Version: 6.00 Build 0)  -->
<svg version="1.1" id="Capa_1" xmlns="http://www.w3.org/2000/svg" xmlns:xlink="http://www.w3.org/1999/xlink" x="0px" y="0px"
	 viewBox="0 0 50 50" style="enable-background:new 0 0 50 50;" xml:space="preserve">
<style type="text/css">
	.st0{fill:none;stroke:#FFFFFF;stroke-miterlimit:10;}
</style>
<g>
	<line class="st0" x1="5.9" y1="8.7" x2="5.9" y2="46.9"/>
	<line class="st0" x1="41.6" y1="8.7" x2="41.6" y2="46.9"/>
	<line class="st0" x1="41.8" y1="46.7" x2="5.7" y2="46.7"/>
	<line class="st0" x1="41.6" y1="42.2" x2="5.9" y2="42.2"/>
	<line class="st0" x1="41.6" y1="37.9" x2="5.9" y2="37.9"/>
	<line class="st0" x1="41.6" y1="33.6" x2="5.9" y2="33.6"/>
	<line class="st0" x1="41.6" y1="29.4" x2="5.9" y2="29.4"/>
	<line class="st0" x1="41.6" y1="25.1" x2="5.9" y2="25.1"/>
	<line class="st0" x1="41.6" y1="20.9" x2="5.9" y2="20.9"/>
	<line class="st0" x1="41.6" y1="16.6" x2="5.9" y2="16.6"/>
	<line class="st0" x1="41.6" y1="12.3" x2="5.9" y2="12.3"/>
	<line class="st0" x1="44.9" y1="8.7" x2="3.1" y2="8.7"/>
	<line class="st0" x1="44.9" y1="3.1" x2="2.9" y2="3.1"/>
	<line class="st0" x1="3.1" y1="3.1" x2="3.1" y2="8.9"/>
	<line class="st0" x1="44.7" y1="3.1" x2="44.7" y2="8.9"/>
</g>
</svg>
