<svg width="16" height="16" viewBox="0 0 16 16" fill="none" xmlns="http://www.w3.org/2000/svg">
<path d="M8.00001 0C4.92801 0 2.43201 2.496 2.43201 5.568C2.43201 9.408 8.00001 16 8.00001 16C8.00001 16 13.568 9.216 13.568 5.568C13.568 2.496 11.072 0 8.00001 0ZM9.66401 7.2C9.21601 7.648 8.60801 7.904 8.00001 7.904C7.39201 7.904 6.78401 7.68 6.33601 7.2C5.40801 6.272 5.40801 4.768 6.33601 3.84C6.78401 3.392 7.39201 3.136 8.00001 3.136C8.60801 3.136 9.21601 3.392 9.66401 3.84C10.592 4.768 10.592 6.272 9.66401 7.2Z" fill="#454545"/>
</svg>
