<?xml version="1.0" encoding="utf-8"?>
<!-- Generator: Adobe Illustrator 23.0.5, SVG Export Plug-In . SVG Version: 6.00 Build 0)  -->
<svg version="1.1" id="Capa_1" xmlns="http://www.w3.org/2000/svg" xmlns:xlink="http://www.w3.org/1999/xlink" x="0px" y="0px"
	 viewBox="0 0 50 50" style="enable-background:new 0 0 50 50;" xml:space="preserve">
<style type="text/css">
	.st0{fill:none;stroke:#FFFFFF;stroke-miterlimit:10;}
</style>
<line class="st0" x1="1.1" y1="4" x2="1.1" y2="42.4"/>
<line class="st0" x1="49.2" y1="4.2" x2="49.2" y2="42.6"/>
<line class="st0" x1="7.1" y1="8.5" x2="7.1" y2="46.9"/>
<line class="st0" x1="19.1" y1="8.2" x2="19.1" y2="46.7"/>
<line class="st0" x1="31.1" y1="8.2" x2="31.1" y2="46.7"/>
<line class="st0" x1="43.1" y1="8.5" x2="43.1" y2="46.7"/>
<line class="st0" x1="13.1" y1="4.2" x2="13.1" y2="42.4"/>
<line class="st0" x1="25.1" y1="4.2" x2="25.1" y2="42.6"/>
<line class="st0" x1="37.1" y1="4.2" x2="37.1" y2="42.6"/>
<line class="st0" x1="1.1" y1="4.2" x2="7.1" y2="8.5"/>
<line class="st0" x1="13.1" y1="4.2" x2="7.1" y2="8.5"/>
<line class="st0" x1="25.2" y1="4" x2="19" y2="8.5"/>
<line class="st0" x1="37.1" y1="4" x2="30.9" y2="8.5"/>
<line class="st0" x1="49.3" y1="4.2" x2="43.1" y2="8.5"/>
<line class="st0" x1="13.1" y1="4.2" x2="19.1" y2="8.5"/>
<line class="st0" x1="25" y1="4.1" x2="31.1" y2="8.5"/>
<line class="st0" x1="36.9" y1="4" x2="43.1" y2="8.5"/>
<line class="st0" x1="0.9" y1="42.3" x2="7.1" y2="46.7"/>
<line class="st0" x1="13.1" y1="42.4" x2="7.1" y2="46.7"/>
<line class="st0" x1="25.5" y1="42.4" x2="19" y2="47"/>
<line class="st0" x1="37.4" y1="42.4" x2="31.1" y2="46.8"/>
<line class="st0" x1="49.3" y1="42.4" x2="43.1" y2="46.8"/>
<line class="st0" x1="13.1" y1="42.4" x2="19.1" y2="46.9"/>
<line class="st0" x1="25.1" y1="42.4" x2="31.2" y2="46.7"/>
<line class="st0" x1="37.1" y1="42.4" x2="43.3" y2="46.8"/>
</svg>
