<svg width="16" height="16" viewBox="0 0 16 16" fill="none" xmlns="http://www.w3.org/2000/svg">
<g clip-path="url(#clip0)">
<path d="M10.432 8.09593L15.712 11.4239V4.57593L10.432 8.09593Z" fill="#FAFAFA"/>
<path d="M0 4.51196V11.488L5.408 8.09596L0 4.51196Z" fill="#FAFAFA"/>
<path d="M15.04 2.49585H0.992043C0.480043 2.49585 0.0960435 2.87985 0.0320435 3.35985L8.03204 8.60785L16.032 3.35985C15.936 2.84785 15.52 2.49585 15.04 2.49585Z" fill="#FAFAFA"/>
<path d="M9.69604 8.67188L8.28804 9.59988C8.19204 9.66388 8.09604 9.69587 8.00004 9.69587C7.90404 9.69587 7.80804 9.66388 7.71204 9.59988L6.30404 8.67188L0.0320435 12.6719C0.0960435 13.1519 0.512043 13.5039 0.992043 13.5039H15.04C15.552 13.5039 15.936 13.1199 16 12.6719L9.69604 8.67188Z" fill="#FAFAFA"/>
</g>
<defs>
<clipPath id="clip0">
<rect width="16" height="16" fill="white"/>
</clipPath>
</defs>
</svg>
