<svg width="89" height="30" viewBox="0 0 89 30" fill="none" xmlns="http://www.w3.org/2000/svg">
<g clip-path="url(#clip0)">
<path d="M0.0167236 17.175C0.0167236 16.075 0.225057 15.0333 0.650057 14.0583C1.07506 13.0833 1.65839 12.2333 2.40006 11.5C3.14172 10.7666 4.01672 10.1916 5.02506 9.76663C6.03339 9.34163 7.11672 9.1333 8.28339 9.1333C8.92506 9.1333 9.50006 9.1833 10.0084 9.2833C10.5167 9.3833 10.9501 9.49163 11.3167 9.61663C11.6834 9.74163 11.9667 9.8583 12.1667 9.96663C12.3751 10.075 12.4917 10.1416 12.5084 10.1666C12.6001 10.2333 12.6417 10.3166 12.6417 10.4V13.0833C12.6417 13.1333 12.6251 13.175 12.5917 13.2083C12.5584 13.2416 12.5251 13.2583 12.4917 13.2666C12.4501 13.275 12.4167 13.2666 12.3834 13.2416C12.3417 13.2166 12.3167 13.1833 12.2917 13.1416C12.1501 12.8 11.9751 12.4333 11.7751 12.0416C11.5751 11.65 11.3251 11.2833 11.0251 10.95C10.7251 10.6166 10.3667 10.3333 9.94172 10.1166C9.52506 9.89997 9.02506 9.79163 8.45006 9.79163C7.71672 9.79163 7.09172 9.9833 6.57506 10.3666C6.05839 10.75 5.63339 11.2666 5.30839 11.925C4.98339 12.5833 4.74172 13.3583 4.59172 14.2416C4.44172 15.125 4.36672 16.075 4.36672 17.075C4.36672 18.0833 4.48339 18.9833 4.72506 19.7666C4.95839 20.55 5.31672 21.2166 5.78339 21.7583C6.25006 22.3 6.84172 22.7083 7.54172 22.9916C8.25006 23.275 9.06672 23.4166 9.99172 23.4166C10.4834 23.4166 10.9917 23.3666 11.5251 23.2583C12.0584 23.15 12.5751 22.9666 13.0834 22.7C13.1334 22.6666 13.1834 22.6583 13.2334 22.675C13.2834 22.6833 13.3167 22.7083 13.3501 22.7333C13.3751 22.7666 13.3834 22.8083 13.3834 22.85C13.3834 22.9 13.3501 22.95 13.3001 23C12.6417 23.65 11.8751 24.15 10.9917 24.5083C10.1084 24.8666 9.10839 25.0416 7.99172 25.0416C6.73339 25.0416 5.60839 24.8416 4.61672 24.425C3.62506 24.0166 2.79172 23.4583 2.10839 22.7416C1.42506 22.025 0.908389 21.1916 0.550057 20.2416C0.200057 19.3083 0.0167236 18.2833 0.0167236 17.175Z" fill="white"/>
<path d="M19.3334 14.2666C20.1084 14.2666 20.825 14.4083 21.4834 14.6833C22.1334 14.9583 22.7 15.3333 23.1667 15.8166C23.6334 16.2999 24 16.8583 24.2667 17.5083C24.5334 18.1583 24.6584 18.8499 24.6584 19.5916C24.6584 20.3416 24.5167 21.0416 24.225 21.6999C23.9417 22.3583 23.55 22.9333 23.05 23.4249C22.55 23.9166 21.9667 24.3083 21.2917 24.5999C20.6167 24.8833 19.8917 25.0333 19.1167 25.0333C18.3417 25.0333 17.625 24.8916 16.975 24.6166C16.325 24.3416 15.7584 23.9666 15.2917 23.4833C14.825 23.0083 14.4584 22.4416 14.1917 21.7916C13.925 21.1499 13.8 20.4499 13.8 19.6999C13.8 18.9583 13.9417 18.2583 14.2334 17.5999C14.525 16.9416 14.9167 16.3666 15.4084 15.8666C15.9084 15.3749 16.4917 14.9833 17.1667 14.6916C17.825 14.4083 18.55 14.2666 19.3334 14.2666ZM19.2167 24.4249C19.575 24.4249 19.8917 24.2999 20.1584 24.0499C20.425 23.7999 20.65 23.4583 20.825 23.0249C21 22.5916 21.1334 22.0833 21.225 21.4999C21.3167 20.9166 21.3584 20.2999 21.3584 19.6416C21.3584 18.9833 21.3167 18.3666 21.225 17.7833C21.1334 17.1999 21 16.6916 20.825 16.2583C20.65 15.8249 20.425 15.4833 20.1584 15.2333C19.8917 14.9833 19.575 14.8583 19.2167 14.8583C18.8584 14.8583 18.5417 14.9833 18.275 15.2333C18.0084 15.4833 17.7834 15.8249 17.6 16.2583C17.4167 16.6916 17.2834 17.1999 17.2 17.7833C17.1167 18.3666 17.0667 18.9833 17.0667 19.6416C17.0667 20.2999 17.1084 20.9166 17.2 21.4999C17.2834 22.0833 17.425 22.5916 17.6 23.0249C17.7834 23.4583 18.0084 23.7999 18.275 24.0499C18.5417 24.2999 18.8584 24.4249 19.2167 24.4249Z" fill="white"/>
<path d="M37.8666 24.4083C37.925 24.425 37.9666 24.45 38 24.4833C38.025 24.5167 38.0333 24.5583 38.025 24.5917C38.0166 24.625 38 24.6667 37.9583 24.6917C37.925 24.7167 37.875 24.7333 37.8166 24.7333H36.5H36.4H33.55H33.45H32.1333C32.075 24.7333 32.025 24.7167 31.9916 24.6917C31.9583 24.6583 31.9416 24.625 31.925 24.5917C31.9166 24.55 31.925 24.5167 31.95 24.4833C31.975 24.45 32.0166 24.425 32.0833 24.4083C32.1416 24.4 32.25 24.375 32.3916 24.3333C32.5416 24.2917 32.6916 24.225 32.8416 24.1167C33 24.0167 33.1333 23.875 33.2583 23.6833C33.3833 23.5 33.4416 23.25 33.4416 22.95V18.7917V18.7V18.0833C33.4333 17.7667 33.4083 17.4417 33.3666 17.1C33.325 16.7667 33.2333 16.4583 33.1083 16.1833C32.975 15.9083 32.7833 15.6833 32.5333 15.5C32.2833 15.325 31.9416 15.2333 31.525 15.2333C31.0833 15.2333 30.75 15.3167 30.5083 15.4917C30.2666 15.6667 30.0916 15.8833 29.9666 16.1417C29.85 16.4 29.775 16.675 29.75 16.9583C29.725 17.25 29.7083 17.5083 29.7083 17.7333V22.95C29.7083 23.25 29.7666 23.4917 29.8916 23.6833C30.0083 23.8667 30.15 24.0083 30.3083 24.1167C30.4666 24.2167 30.6166 24.2917 30.7583 24.3333C30.9083 24.375 31.0083 24.4 31.0666 24.4083C31.125 24.425 31.1666 24.45 31.2 24.4833C31.225 24.5167 31.2333 24.5583 31.225 24.5917C31.2166 24.625 31.2 24.6667 31.1583 24.6917C31.125 24.7167 31.075 24.7333 31.0166 24.7333H25.3333C25.275 24.7333 25.225 24.7167 25.1916 24.6917C25.1583 24.6583 25.1333 24.625 25.125 24.5917C25.1166 24.55 25.125 24.5167 25.15 24.4833C25.175 24.45 25.2166 24.425 25.2833 24.4083C25.3416 24.4 25.45 24.375 25.5916 24.3333C25.7416 24.2917 25.8916 24.225 26.05 24.1167C26.2083 24.0167 26.3416 23.875 26.4666 23.6833C26.5833 23.5 26.65 23.25 26.65 22.95V16.6667C26.65 16.5667 26.6 16.5083 26.5166 16.4833C26.5 16.4833 26.4416 16.475 26.35 16.45C26.2583 16.425 26.15 16.4 26.025 16.375C25.9 16.3417 25.7916 16.3167 25.6916 16.3C25.5916 16.275 25.525 16.2583 25.5083 16.25C25.4083 16.225 25.3583 16.175 25.3583 16.0917C25.3583 16.0167 25.4083 15.9583 25.525 15.925C25.8166 15.8583 26.1416 15.7667 26.4833 15.65C26.825 15.5333 27.175 15.4 27.5166 15.2583C27.8666 15.1083 28.2 14.95 28.525 14.7833C28.85 14.6167 29.1416 14.4417 29.4 14.2667C29.4666 14.2167 29.5416 14.2 29.6083 14.2083C29.6833 14.2167 29.7166 14.275 29.7166 14.375V15.35C29.875 15.2083 30.0583 15.0667 30.2583 14.9417C30.4666 14.8083 30.6916 14.6917 30.9416 14.5917C31.1916 14.4917 31.475 14.4167 31.7916 14.3583C32.1 14.3 32.45 14.2667 32.825 14.2667C33.4416 14.2667 33.9666 14.3333 34.3833 14.475C34.8 14.6083 35.15 14.7917 35.425 15.0167C35.7 15.2417 35.9083 15.5 36.0583 15.8C36.2083 16.0917 36.3083 16.4 36.375 16.7167C36.4416 17.0333 36.475 17.35 36.4916 17.6583C36.5083 17.9667 36.5083 18.2667 36.5083 18.5333V18.5917V22.9583C36.5083 23.2583 36.5666 23.5 36.6916 23.6917C36.8083 23.875 36.95 24.0167 37.1 24.125C37.2583 24.225 37.4083 24.3 37.55 24.3417C37.7 24.375 37.8 24.4083 37.8666 24.4083Z" fill="white"/>
<path d="M45.3501 23.5501C46.1751 23.6918 46.8584 23.8668 47.4084 24.0668C47.9584 24.2668 48.3918 24.4918 48.7168 24.7501C49.0418 25.0084 49.2668 25.2918 49.4001 25.6084C49.5334 25.9168 49.6001 26.2668 49.6001 26.6334C49.6001 26.8668 49.5584 27.1084 49.4751 27.3668C49.3918 27.6251 49.2501 27.8751 49.0668 28.1168C48.8751 28.3584 48.6168 28.5918 48.3084 28.8168C48.0001 29.0334 47.6084 29.2251 47.1501 29.4001C46.6918 29.5668 46.1418 29.7084 45.5251 29.8001C44.9001 29.9001 44.1834 29.9501 43.3751 29.9501C42.5668 29.9501 41.8668 29.9084 41.2668 29.8334C40.6668 29.7584 40.1668 29.6501 39.7418 29.5168C39.3251 29.3834 38.9834 29.2334 38.7168 29.0668C38.4501 28.9001 38.2501 28.7168 38.1001 28.5334C37.9501 28.3501 37.8501 28.1668 37.8001 27.9834C37.7501 27.8001 37.7251 27.6251 37.7251 27.4584C37.7251 27.2251 37.7834 26.9918 37.9084 26.7751C38.0334 26.5501 38.2001 26.3501 38.4251 26.1584C38.6501 25.9668 38.9168 25.8084 39.2251 25.6668C39.5418 25.5251 39.8918 25.4168 40.2834 25.3418C40.3251 25.3251 40.3584 25.3084 40.3584 25.2751C40.3584 25.2501 40.3501 25.2168 40.3084 25.1918C39.9918 24.9834 39.7334 24.7251 39.5251 24.4168C39.3251 24.1168 39.2168 23.7501 39.2168 23.3334C39.2168 23.0584 39.2668 22.8001 39.3668 22.5834C39.4668 22.3668 39.6001 22.1751 39.7834 22.0084C39.9668 21.8418 40.1834 21.7001 40.4334 21.5834C40.6834 21.4668 40.9668 21.3751 41.2668 21.3084C41.3168 21.2918 41.3418 21.2668 41.3418 21.2251C41.3418 21.1918 41.3168 21.1584 41.2751 21.1501C40.8918 21.0084 40.5418 20.8251 40.2418 20.6001C39.9334 20.3751 39.6751 20.1334 39.4584 19.8501C39.2418 19.5751 39.0751 19.2751 38.9584 18.9501C38.8418 18.6251 38.7834 18.2834 38.7834 17.9334C38.7834 17.4334 38.9084 16.9668 39.1584 16.5251C39.4084 16.0834 39.7501 15.6918 40.1918 15.3584C40.6334 15.0251 41.1418 14.7584 41.7418 14.5668C42.3334 14.3751 42.9668 14.2751 43.6501 14.2751C44.5418 14.2751 45.3418 14.4334 46.0501 14.7584C46.1584 14.8001 46.2418 14.7918 46.3084 14.7334C46.4584 14.6168 46.5584 14.4834 46.6168 14.3501C46.6751 14.2168 46.7001 14.0751 46.7084 13.9418C46.7084 13.8001 46.7084 13.6668 46.6834 13.5418C46.6668 13.4168 46.6584 13.3084 46.6584 13.2084C46.6584 12.9668 46.7334 12.7501 46.8918 12.5668C47.0501 12.3751 47.2834 12.2834 47.6084 12.2834C47.9251 12.2834 48.1668 12.3834 48.3418 12.5751C48.5168 12.7668 48.6001 13.0251 48.6001 13.3501C48.6001 13.5751 48.5584 13.7834 48.4668 13.9751C48.3834 14.1584 48.2668 14.3334 48.1168 14.4751C47.9668 14.6251 47.8001 14.7501 47.6084 14.8668C47.4168 14.9834 47.2168 15.0668 47.0001 15.1418C46.9418 15.1584 46.9084 15.1834 46.9168 15.2251C46.9168 15.2668 46.9334 15.2918 46.9668 15.3084C47.3834 15.6334 47.7084 16.0168 47.9418 16.4501C48.1751 16.8918 48.2918 17.3584 48.2918 17.8668C48.2918 18.3668 48.1668 18.8334 47.9084 19.2834C47.6584 19.7251 47.3084 20.1168 46.8834 20.4501C46.4501 20.7834 45.9334 21.0418 45.3418 21.2334C44.7501 21.4251 44.1084 21.5251 43.4334 21.5251C43.2584 21.5251 43.0834 21.5168 42.9168 21.5001C42.7418 21.4834 42.5668 21.4834 42.3918 21.5168C42.2334 21.5418 42.0834 21.6001 41.9418 21.7001C41.8001 21.8001 41.7251 21.9334 41.7251 22.1084C41.7251 22.2584 41.7751 22.4001 41.8751 22.5168C41.9751 22.6334 42.1501 22.7501 42.4168 22.8668C42.6834 22.9834 43.0501 23.0918 43.5251 23.2084C43.9918 23.3001 44.6001 23.4251 45.3501 23.5501ZM43.8418 29.3001C44.1834 29.3001 44.5334 29.2668 44.8918 29.2001C45.2501 29.1334 45.5834 29.0418 45.8834 28.9168C46.1834 28.7918 46.4334 28.6334 46.6251 28.4501C46.8168 28.2584 46.9168 28.0501 46.9168 27.8084C46.9168 27.5751 46.8251 27.3751 46.6501 27.2168C46.4751 27.0584 46.2418 26.9084 45.9418 26.7918C45.6501 26.6668 45.3168 26.5668 44.9418 26.4918C44.5668 26.4168 44.1834 26.3418 43.7918 26.2668C43.4418 26.2001 43.0418 26.1334 42.6001 26.0418C42.1501 25.9501 41.7084 25.8251 41.2834 25.6668C41.2418 25.6501 41.2001 25.6501 41.1501 25.6668C40.8751 25.7668 40.6418 25.9084 40.4334 26.1084C40.2334 26.3084 40.1251 26.5834 40.1251 26.9501C40.1251 27.3668 40.2334 27.7168 40.4418 28.0168C40.6501 28.3084 40.9334 28.5584 41.2751 28.7501C41.6168 28.9418 42.0168 29.0834 42.4668 29.1751C42.9001 29.2584 43.3668 29.3001 43.8418 29.3001ZM43.5251 14.8334C43.2751 14.8334 43.0584 14.9084 42.8751 15.0668C42.6918 15.2251 42.5334 15.4418 42.4168 15.7251C42.2918 16.0084 42.2084 16.3251 42.1418 16.7001C42.0834 17.0668 42.0501 17.4668 42.0501 17.8918C42.0501 18.3168 42.0834 18.7084 42.1418 19.0834C42.2001 19.4501 42.2918 19.7751 42.4168 20.0584C42.5334 20.3418 42.6918 20.5584 42.8751 20.7168C43.0584 20.8751 43.2751 20.9501 43.5251 20.9501C43.7751 20.9501 43.9918 20.8751 44.1668 20.7168C44.3501 20.5584 44.5001 20.3418 44.6251 20.0584C44.7501 19.7751 44.8418 19.4501 44.9001 19.0834C44.9584 18.7084 44.9918 18.3168 44.9918 17.8918C44.9918 17.4668 44.9584 17.0751 44.9001 16.7001C44.8418 16.3251 44.7501 16.0084 44.6251 15.7251C44.5001 15.4501 44.3501 15.2251 44.1668 15.0668C43.9918 14.9168 43.7751 14.8334 43.5251 14.8334Z" fill="white"/>
<path d="M56.6333 14.2667C56.9499 14.2667 57.2166 14.3083 57.4416 14.3833C57.6583 14.4583 57.8333 14.5667 57.9749 14.7C58.1083 14.8333 58.2083 14.9833 58.2666 15.1667C58.3249 15.3417 58.3583 15.5333 58.3583 15.725C58.3583 16.0917 58.2416 16.375 58.0166 16.575C57.7833 16.7833 57.4749 16.8833 57.0916 16.8833C56.7999 16.8833 56.5666 16.825 56.3999 16.725C56.2333 16.6167 56.0916 16.5 55.9749 16.3833C55.8583 16.2583 55.7499 16.1417 55.6499 16.0417C55.5499 15.9333 55.4333 15.8833 55.2916 15.8833C55.1666 15.8833 55.0249 15.925 54.8749 16.0167C54.7249 16.1 54.5916 16.2667 54.4666 16.5083C54.3416 16.75 54.2333 17.0833 54.1583 17.5083C54.0749 17.9333 54.0333 18.475 54.0333 19.15V23.0667C54.0333 23.3667 54.0833 23.6083 54.1833 23.775C54.2833 23.95 54.3999 24.0833 54.5333 24.1667C54.6666 24.2583 54.7916 24.3167 54.9249 24.35C55.0583 24.3833 55.1499 24.4083 55.2083 24.4167C55.2666 24.4333 55.3083 24.4583 55.3416 24.4917C55.3666 24.525 55.3749 24.5667 55.3666 24.6C55.3583 24.6333 55.3416 24.675 55.2999 24.7C55.2666 24.725 55.2166 24.7417 55.1583 24.7417H54.0249H53.9249H51.075H50.9749H49.8333C49.775 24.7417 49.725 24.725 49.6916 24.7C49.6583 24.6667 49.6333 24.6333 49.625 24.6C49.6166 24.5583 49.625 24.525 49.65 24.4917C49.675 24.4583 49.725 24.4333 49.7833 24.4167C49.8416 24.4083 49.9416 24.3917 50.0666 24.35C50.1916 24.3167 50.3249 24.2583 50.4583 24.1667C50.5916 24.075 50.7083 23.9417 50.8083 23.775C50.9083 23.6 50.9583 23.3667 50.9583 23.0667V16.6667C50.9583 16.5667 50.9166 16.5083 50.825 16.4833C50.8083 16.4833 50.75 16.475 50.6583 16.45C50.5666 16.425 50.4583 16.4 50.3333 16.375C50.2083 16.3417 50.1 16.3167 50 16.3C49.9 16.275 49.8333 16.2583 49.8166 16.25C49.7166 16.225 49.6666 16.175 49.6666 16.0917C49.6666 16.0167 49.7166 15.9583 49.8333 15.925C50.125 15.8583 50.4499 15.7667 50.7916 15.65C51.1333 15.5333 51.4833 15.4 51.8249 15.2583C52.1749 15.1083 52.5083 14.95 52.8333 14.7833C53.1583 14.6167 53.4499 14.4417 53.6999 14.2667C53.7666 14.2167 53.8416 14.2 53.9083 14.2083C53.9833 14.2167 54.0166 14.275 54.0166 14.375V16C54.2833 15.4167 54.6416 14.9833 55.0916 14.7C55.5583 14.4083 56.0666 14.2667 56.6333 14.2667Z" fill="white"/>
<path d="M61.7833 18.7416C61.6666 18.7416 61.6 18.8083 61.6 18.9333C61.6 19.6999 61.6666 20.3666 61.8083 20.9166C61.9416 21.4666 62.1416 21.9166 62.4 22.2666C62.6583 22.6166 62.9833 22.8749 63.375 23.0416C63.7666 23.2083 64.2166 23.2916 64.725 23.2916C65.1166 23.2916 65.4666 23.2499 65.775 23.1666C66.0833 23.0833 66.35 22.9833 66.575 22.8749C66.8 22.7666 66.9833 22.6583 67.125 22.5666C67.2666 22.4666 67.375 22.4083 67.4416 22.3749C67.55 22.3249 67.6333 22.3416 67.6916 22.3999C67.75 22.4666 67.75 22.5583 67.6916 22.6916C67.6666 22.7416 67.6166 22.8249 67.5416 22.9583C67.4666 23.0916 67.35 23.2416 67.2 23.4166C67.05 23.5916 66.8583 23.7749 66.6333 23.9583C66.4083 24.1499 66.1333 24.3249 65.825 24.4833C65.5166 24.6416 65.15 24.7749 64.75 24.8749C64.35 24.9749 63.9 25.0249 63.4 25.0249C62.6416 25.0249 61.9583 24.9083 61.35 24.6666C60.7333 24.4333 60.2166 24.0833 59.7833 23.6333C59.35 23.1833 59.0166 22.6333 58.775 21.9833C58.5416 21.3333 58.4166 20.5999 58.4166 19.7833C58.4166 18.8916 58.5666 18.1083 58.8583 17.4166C59.15 16.7249 59.5416 16.1583 60.0166 15.6916C60.4916 15.2249 61.0333 14.8749 61.6333 14.6333C62.2416 14.3916 62.85 14.2666 63.475 14.2666C64.0666 14.2666 64.5833 14.3499 65.0333 14.5083C65.4833 14.6666 65.875 14.8833 66.2 15.1416C66.525 15.3999 66.8 15.6916 67.0166 16.0166C67.2333 16.3333 67.4083 16.6583 67.5416 16.9749C67.675 17.2916 67.7666 17.5916 67.8166 17.8666C67.8666 18.1416 67.8916 18.3666 67.8916 18.5333C67.8916 18.6083 67.8666 18.6666 67.8166 18.6916C67.7666 18.7249 67.7 18.7416 67.6166 18.7416H61.7833ZM61.6583 17.9916C61.6416 18.0916 61.6916 18.1416 61.7916 18.1416C61.8166 18.1416 61.8916 18.1416 62.0166 18.1333C62.1416 18.1333 62.3 18.1249 62.4833 18.1166C62.6666 18.1083 62.8666 18.0999 63.075 18.0916C63.2833 18.0833 63.4833 18.0749 63.6833 18.0666C63.875 18.0583 64.0416 18.0499 64.1833 18.0499C64.325 18.0499 64.4083 18.0416 64.45 18.0333C64.5666 18.0249 64.7 17.9749 64.8333 17.8749C64.9666 17.7749 65.0333 17.6083 65.0333 17.3666C65.0333 17.1499 65 16.8999 64.9416 16.6083C64.8833 16.3166 64.7833 16.0499 64.65 15.7916C64.5166 15.5333 64.35 15.3166 64.15 15.1416C63.9416 14.9666 63.7 14.8749 63.4 14.8749C63.1666 14.8749 62.9583 14.9416 62.7916 15.0583C62.6166 15.1833 62.4666 15.3499 62.3416 15.5416C62.2166 15.7416 62.1166 15.9583 62.0333 16.1999C61.95 16.4416 61.8833 16.6749 61.825 16.9083C61.775 17.1416 61.7333 17.3499 61.7083 17.5416C61.6833 17.7499 61.6666 17.8916 61.6583 17.9916Z" fill="white"/>
<path d="M69.2084 23.9582C69.2084 23.9416 69.1917 23.8332 69.1584 23.6332C69.1251 23.4332 69.0834 23.2166 69.0501 22.9666C69.0084 22.7249 68.9751 22.4999 68.9417 22.2832C68.9084 22.0666 68.8834 21.9332 68.8751 21.8832C68.8584 21.7749 68.8917 21.7166 68.9667 21.6999C69.0417 21.6832 69.1001 21.6999 69.1334 21.7666C69.1417 21.7916 69.1917 21.8666 69.2834 21.9999C69.3751 22.1332 69.5001 22.2999 69.6584 22.4999C69.8167 22.6999 70.0084 22.9082 70.2334 23.1332C70.4584 23.3582 70.7 23.5666 70.9834 23.7582C71.2584 23.9499 71.5584 24.1082 71.8834 24.2332C72.2084 24.3582 72.5584 24.4166 72.925 24.4166C73.3584 24.4166 73.6917 24.2999 73.9334 24.0666C74.175 23.8332 74.3 23.5249 74.3 23.1416C74.3 22.9416 74.275 22.7416 74.225 22.5416C74.175 22.3416 74.0584 22.1499 73.8834 21.9499C73.7084 21.7582 73.4584 21.5582 73.1334 21.3666C72.8084 21.1749 72.375 20.9832 71.8334 20.7832C71.3334 20.6082 70.9167 20.3999 70.575 20.1582C70.2334 19.9166 69.9584 19.6499 69.7501 19.3499C69.5417 19.0499 69.3834 18.7332 69.2917 18.3916C69.2001 18.0499 69.1501 17.6832 69.1501 17.2999C69.1501 17.0082 69.2001 16.6832 69.3084 16.3332C69.4167 15.9832 69.6084 15.6499 69.8834 15.3499C70.1584 15.0416 70.5334 14.7916 71.0084 14.5832C71.4834 14.3749 72.0917 14.2749 72.8334 14.2749C73.3 14.2749 73.7334 14.3166 74.1334 14.3916C74.5334 14.4666 74.8834 14.5499 75.1834 14.6499C75.4834 14.7416 75.7167 14.8332 75.9 14.9166C76.075 14.9999 76.175 15.0499 76.2 15.0499C76.2417 15.0749 76.275 15.0916 76.275 15.1082C76.2834 15.1249 76.2917 15.1499 76.3 15.1832C76.3 15.1999 76.3167 15.2999 76.3584 15.4916C76.4 15.6832 76.4334 15.8916 76.475 16.1166C76.5167 16.3416 76.55 16.5499 76.5917 16.7416C76.6334 16.9332 76.65 17.0332 76.65 17.0582C76.6667 17.1332 76.6417 17.1916 76.575 17.2249C76.5084 17.2582 76.45 17.2416 76.3917 17.1582C76.2834 17.0082 76.1167 16.7999 75.8917 16.5499C75.6667 16.2916 75.3917 16.0416 75.0667 15.7916C74.7417 15.5416 74.3834 15.3249 73.9834 15.1416C73.5917 14.9582 73.1667 14.8666 72.725 14.8666C72.2584 14.8666 71.9167 14.9916 71.6917 15.2416C71.4667 15.4916 71.3667 15.7916 71.3667 16.1499C71.3667 16.3332 71.3917 16.5082 71.4417 16.6749C71.4917 16.8416 71.6084 17.0082 71.7834 17.1666C71.9584 17.3249 72.2084 17.4832 72.5334 17.6499C72.8584 17.8082 73.3 17.9749 73.85 18.1416C74.95 18.4832 75.7834 18.9416 76.35 19.5249C76.9167 20.1082 77.2 20.8582 77.2 21.7749C77.2 22.2416 77.125 22.6749 76.9667 23.0749C76.8084 23.4666 76.5667 23.8166 76.2334 24.1082C75.9 24.3999 75.475 24.6249 74.9667 24.7916C74.45 24.9582 73.8417 25.0416 73.1334 25.0416C72.5334 25.0416 72.0084 24.9999 71.5417 24.9082C71.075 24.8249 70.6834 24.7249 70.3667 24.6166C70.0501 24.5082 69.7917 24.4082 69.6167 24.3166C69.4334 24.2249 69.3334 24.1666 69.3001 24.1416C69.2834 24.1249 69.2751 24.1082 69.2584 24.0749C69.2251 24.0332 69.2167 23.9999 69.2084 23.9582Z" fill="white"/>
<path d="M83.6 14.2666C84.375 14.2666 85.0917 14.4083 85.7417 14.6833C86.3917 14.9583 86.9584 15.3333 87.425 15.8166C87.8917 16.2999 88.2584 16.8583 88.5251 17.5083C88.7917 18.1583 88.9167 18.8499 88.9167 19.5916C88.9167 20.3416 88.7751 21.0416 88.4834 21.6999C88.1917 22.3583 87.8 22.9333 87.3084 23.4249C86.8084 23.9166 86.225 24.3083 85.55 24.5999C84.875 24.8833 84.15 25.0333 83.375 25.0333C82.6 25.0333 81.8834 24.8916 81.2334 24.6166C80.5834 24.3416 80.0167 23.9666 79.55 23.4833C79.0833 23.0083 78.7167 22.4416 78.45 21.7916C78.1834 21.1499 78.0583 20.4499 78.0583 19.6999C78.0583 18.9583 78.2 18.2583 78.4917 17.5999C78.775 16.9416 79.175 16.3666 79.6667 15.8666C80.1667 15.3749 80.75 14.9833 81.425 14.6916C82.0917 14.4083 82.8167 14.2666 83.6 14.2666ZM83.4834 24.4249C83.85 24.4249 84.1584 24.2999 84.425 24.0499C84.6917 23.7999 84.9167 23.4583 85.0917 23.0249C85.2667 22.5916 85.4 22.0833 85.4917 21.4999C85.5834 20.9166 85.625 20.2999 85.625 19.6416C85.625 18.9833 85.5834 18.3666 85.4917 17.7833C85.4 17.1999 85.2667 16.6916 85.0917 16.2583C84.9167 15.8249 84.6917 15.4833 84.425 15.2333C84.1584 14.9833 83.8417 14.8583 83.4834 14.8583C83.125 14.8583 82.8084 14.9833 82.5417 15.2333C82.275 15.4833 82.05 15.8249 81.8667 16.2583C81.6834 16.6916 81.55 17.1999 81.4667 17.7833C81.3834 18.3666 81.3334 18.9833 81.3334 19.6416C81.3334 20.2999 81.375 20.9166 81.4667 21.4999C81.55 22.0833 81.6834 22.5916 81.8667 23.0249C82.05 23.4583 82.275 23.7999 82.5417 24.0499C82.8084 24.2999 83.1167 24.4249 83.4834 24.4249Z" fill="white"/>
<path d="M24.975 2.97508C24.975 3.03341 24.9417 3.06675 24.8834 3.06675H24.625C24.5667 3.06675 24.5334 3.03341 24.5334 2.97508C24.5334 2.82508 24.525 2.65841 24.4917 2.49175C24.4667 2.31675 24.425 2.20008 24.375 2.12508C23.9834 1.60841 23.5 1.22508 22.925 0.983415C22.35 0.741748 21.7334 0.616747 21.075 0.616747C20.4667 0.616747 19.9 0.750082 19.3667 1.00841C18.8334 1.27508 18.3667 1.62508 17.9667 2.08341C17.5667 2.53341 17.25 3.05841 17.025 3.66675C16.8 4.26675 16.6834 4.91675 16.6834 5.60008C16.6834 6.29175 16.8 6.93342 17.025 7.53342C17.25 8.13342 17.5667 8.66675 17.9667 9.11675C18.3667 9.56675 18.8334 9.92508 19.3667 10.1917C19.9 10.4584 20.4667 10.5834 21.075 10.5834C21.725 10.5834 22.325 10.4667 22.8834 10.2417C23.4417 10.0167 23.925 9.64175 24.325 9.12508C24.375 9.05008 24.425 8.93341 24.4584 8.75008C24.5 8.57508 24.5167 8.40008 24.5167 8.22508C24.5167 8.16675 24.55 8.13341 24.6084 8.13341H24.8667C24.925 8.13341 24.9584 8.16675 24.9584 8.22508V9.01675C24.9584 9.05841 24.9584 9.08341 24.95 9.10008C24.95 9.11675 24.9334 9.14175 24.9167 9.18341C24.5417 9.79175 24.025 10.2667 23.3584 10.6167C22.6917 10.9667 21.9334 11.1417 21.075 11.1417C20.375 11.1417 19.725 11.0001 19.1167 10.7084C18.5084 10.4167 17.975 10.0251 17.5167 9.52508C17.0584 9.02508 16.7 8.43341 16.4417 7.75841C16.175 7.08341 16.05 6.36675 16.05 5.59175C16.05 4.83341 16.1834 4.11675 16.4417 3.44175C16.7084 2.76675 17.0667 2.18341 17.5167 1.67508C17.975 1.17508 18.5084 0.775081 19.1167 0.483415C19.725 0.191748 20.375 0.041748 21.075 0.041748C21.9334 0.041748 22.7 0.216748 23.3584 0.566748C24.025 0.916748 24.5417 1.39175 24.9167 2.00008C24.9334 2.04175 24.95 2.06675 24.95 2.08341C24.9584 2.10008 24.9584 2.12508 24.9584 2.16675V2.97508H24.975Z" fill="white"/>
<path d="M26.2667 7.09175C26.2667 6.54175 26.3584 6.03341 26.5584 5.55841C26.7501 5.08341 27.0167 4.66675 27.3501 4.31675C27.6834 3.95841 28.0751 3.68341 28.5251 3.47508C28.9751 3.26675 29.4501 3.16675 29.9584 3.16675C30.4667 3.16675 30.9417 3.26675 31.3917 3.47508C31.8417 3.68341 32.2334 3.96675 32.5667 4.31675C32.9001 4.67508 33.1667 5.08341 33.3584 5.55841C33.5501 6.03341 33.6501 6.54175 33.6501 7.09175C33.6501 7.64175 33.5501 8.15008 33.3584 8.62508C33.1667 9.10008 32.9001 9.51675 32.5667 9.86675C32.2334 10.2251 31.8417 10.5001 31.3917 10.7084C30.9417 10.9167 30.4667 11.0167 29.9584 11.0167C29.4501 11.0167 28.9751 10.9167 28.5251 10.7084C28.0751 10.5001 27.6834 10.2167 27.3501 9.86675C27.0167 9.50842 26.7501 9.09175 26.5584 8.62508C26.3667 8.15008 26.2667 7.64175 26.2667 7.09175ZM26.8417 7.09175C26.8417 7.55842 26.9251 7.99175 27.0834 8.40008C27.2417 8.80842 27.4667 9.15842 27.7501 9.46675C28.0334 9.77508 28.3667 10.0084 28.7417 10.1834C29.1251 10.3584 29.5251 10.4417 29.9501 10.4417C30.3751 10.4417 30.7834 10.3584 31.1584 10.1834C31.5417 10.0084 31.8667 9.77508 32.1501 9.46675C32.4334 9.15842 32.6584 8.80842 32.8167 8.40008C32.9751 7.99175 33.0584 7.55842 33.0584 7.09175C33.0584 6.63341 32.9751 6.20841 32.8167 5.80008C32.6584 5.39175 32.4334 5.04175 32.1501 4.73341C31.8667 4.42508 31.5334 4.19175 31.1584 4.00841C30.7751 3.83341 30.3751 3.74175 29.9501 3.74175C29.5251 3.74175 29.1251 3.83341 28.7417 4.00841C28.3584 4.18341 28.0334 4.42508 27.7501 4.73341C27.4667 5.04175 27.2417 5.39175 27.0834 5.80008C26.9251 6.20841 26.8417 6.63341 26.8417 7.09175Z" fill="white"/>
<path d="M35.8417 4.20845C35.8417 4.10845 35.8 3.98345 35.7083 3.85011C35.625 3.71678 35.4417 3.64178 35.1667 3.64178C35.1083 3.64178 35.075 3.60845 35.075 3.55011V3.32511C35.075 3.26678 35.1083 3.23345 35.1667 3.23345H36.325C36.3833 3.23345 36.4167 3.26678 36.4167 3.32511V4.46678C36.7083 4.07511 37.075 3.75845 37.5 3.51678C37.9333 3.28345 38.4167 3.15845 38.9667 3.15845C39.1 3.15845 39.2083 3.17511 39.3083 3.20845C39.4083 3.24178 39.45 3.35011 39.45 3.51678V4.20011C39.45 4.25845 39.4167 4.29178 39.3583 4.29178H39.1C39.0417 4.29178 39.0083 4.25845 39.0083 4.20011C39.0083 4.05845 39 3.93345 38.975 3.82511C38.95 3.71678 38.9 3.66678 38.8167 3.66678C38.5083 3.66678 38.2167 3.73345 37.925 3.87511C37.6333 4.00845 37.3833 4.19178 37.1583 4.41678C36.9333 4.65011 36.7583 4.90845 36.6167 5.21678C36.475 5.52512 36.4083 5.84178 36.4083 6.17512V9.97512C36.4083 10.0085 36.4083 10.0501 36.4167 10.1168C36.425 10.1835 36.45 10.2418 36.4917 10.3085C36.5333 10.3668 36.6 10.4251 36.6917 10.4668C36.775 10.5168 36.9083 10.5335 37.075 10.5335C37.1333 10.5335 37.1667 10.5668 37.1667 10.6251V10.8501C37.1667 10.9085 37.1333 10.9418 37.075 10.9418H35.1583C35.1 10.9418 35.0667 10.9085 35.0667 10.8501V10.6251C35.0667 10.5668 35.1 10.5335 35.1583 10.5335C35.4333 10.5335 35.6083 10.4668 35.7 10.3335C35.7833 10.2001 35.8333 10.0835 35.8333 9.96678L35.8417 4.20845Z" fill="white"/>
<path d="M39.9584 3.50828C39.9584 3.44995 39.9917 3.41661 40.05 3.39995L41.1167 3.23328V1.36661C41.1167 1.32495 41.1167 1.29995 41.125 1.28328C41.125 1.26661 41.15 1.24161 41.1917 1.21661L41.6167 0.88328C41.625 0.874947 41.6417 0.866613 41.6667 0.849947C41.6834 0.841613 41.7 0.85828 41.7 0.90828V3.23328H44.0584C44.1167 3.23328 44.15 3.26661 44.15 3.32495V3.64161C44.15 3.70828 44.1167 3.73328 44.0584 3.73328H41.7V8.79161C41.7 9.04161 41.725 9.28328 41.7834 9.50828C41.8417 9.73328 41.9334 9.93328 42.05 10.0999C42.175 10.2666 42.325 10.3999 42.5167 10.4916C42.7 10.5916 42.925 10.6333 43.1917 10.6333C43.2834 10.6333 43.3917 10.6333 43.5167 10.6249C43.6417 10.6249 43.775 10.5999 43.9 10.5583C43.9167 10.5499 43.9417 10.5416 43.975 10.5499C44.0084 10.5583 44.025 10.5749 44.0334 10.5999C44.0667 10.6833 44.0834 10.7333 44.0834 10.7499C44.0834 10.7749 44.0917 10.7833 44.0917 10.7999C44.0917 10.8333 44.075 10.8499 44.05 10.8583C43.8917 10.9166 43.7334 10.9583 43.5834 10.9833C43.4334 10.9999 43.2917 11.0166 43.175 11.0166C42.7667 11.0166 42.4334 10.9583 42.175 10.8416C41.9084 10.7249 41.7 10.5666 41.5417 10.3749C41.3834 10.1749 41.275 9.94161 41.2167 9.67495C41.1584 9.40828 41.125 9.11661 41.125 8.81661V3.72495H40.0584C40 3.72495 39.9667 3.69995 39.9667 3.63328L39.9584 3.50828Z" fill="white"/>
<path d="M45.8083 4.2083C45.7999 4.1083 45.7499 3.9833 45.6749 3.84997C45.5916 3.71664 45.4166 3.64164 45.1416 3.64164C45.0833 3.64164 45.0499 3.6083 45.0499 3.54997V3.32497C45.0499 3.26664 45.0833 3.2333 45.1416 3.2333H46.2999C46.3583 3.2333 46.3916 3.26664 46.3916 3.32497V9.89997C46.3916 9.94997 46.3999 10.0166 46.4249 10.0916C46.4416 10.1666 46.4749 10.2416 46.5249 10.3083C46.5749 10.375 46.6333 10.4333 46.7249 10.475C46.8083 10.525 46.9249 10.5416 47.0666 10.5416C47.1249 10.5416 47.1583 10.575 47.1583 10.6333V10.8583C47.1583 10.9166 47.1249 10.95 47.0666 10.95H45.1499C45.0916 10.95 45.0583 10.9166 45.0583 10.8583V10.6333C45.0583 10.575 45.0916 10.5416 45.1499 10.5416C45.3083 10.5416 45.4416 10.5166 45.5333 10.4583C45.6249 10.4 45.6916 10.3333 45.7416 10.2583C45.7916 10.1833 45.8083 10.1083 45.8166 10.0333C45.8166 9.9583 45.8249 9.89997 45.8249 9.87497V4.2083H45.8083ZM45.8083 0.349967C45.8083 0.291633 45.8416 0.258301 45.8999 0.258301H46.2916C46.3499 0.258301 46.3833 0.291633 46.3833 0.349967V1.3333C46.3833 1.39164 46.3499 1.42497 46.2916 1.42497H45.8999C45.8416 1.42497 45.8083 1.39164 45.8083 1.3333V0.349967Z" fill="white"/>
<path d="M49.0417 4.31678C49.0417 4.28345 49.0417 4.23345 49.0334 4.15845C49.025 4.08345 49 4.00845 48.9584 3.93345C48.9084 3.85845 48.8417 3.79178 48.75 3.73345C48.6584 3.67511 48.5334 3.65011 48.3667 3.65011C48.3084 3.65011 48.275 3.61678 48.275 3.55845V3.33345C48.275 3.27511 48.3084 3.24178 48.3667 3.24178H49.3667C49.425 3.24178 49.4584 3.27511 49.475 3.33345L49.6 4.29178C49.8917 3.95011 50.2834 3.67511 50.7667 3.46678C51.25 3.25845 51.7417 3.15845 52.2417 3.15845C52.6917 3.15845 53.1 3.22511 53.475 3.35011C53.85 3.47511 54.175 3.66678 54.45 3.90845C54.725 4.15845 54.9334 4.46678 55.0917 4.83345C55.2417 5.20845 55.325 5.63345 55.325 6.13345V9.97512C55.325 10.0251 55.3334 10.0835 55.3584 10.1501C55.375 10.2168 55.4084 10.2751 55.4584 10.3335C55.5 10.3918 55.5667 10.4335 55.6584 10.4751C55.7417 10.5168 55.8584 10.5335 56 10.5335C56.0584 10.5335 56.0917 10.5668 56.0917 10.6251V10.8501C56.0917 10.9085 56.0584 10.9418 56 10.9418H54.0834C54.025 10.9418 53.9917 10.9085 53.9917 10.8501V10.6251C53.9917 10.5668 54.025 10.5335 54.0834 10.5335C54.3584 10.5335 54.5334 10.4668 54.6167 10.3335C54.7 10.2001 54.7417 10.0835 54.75 9.96678V6.13345C54.75 5.72512 54.6834 5.36678 54.5584 5.05011C54.4334 4.73345 54.2584 4.47511 54.0417 4.27511C53.825 4.07511 53.5584 3.91678 53.2584 3.80845C52.9584 3.70011 52.625 3.65011 52.2584 3.65011C51.9834 3.65011 51.7167 3.69178 51.4417 3.76678C51.175 3.85011 50.9167 3.95845 50.6834 4.10011C50.45 4.24178 50.2334 4.40845 50.05 4.60845C49.8667 4.80845 49.725 5.02511 49.625 5.26678V9.84178C49.625 9.87512 49.625 9.92512 49.6334 10.0001C49.6334 10.0751 49.6667 10.1501 49.7084 10.2251C49.75 10.3001 49.8167 10.3668 49.9084 10.4251C49.9917 10.4835 50.125 10.5085 50.2917 10.5085C50.35 10.5085 50.3834 10.5418 50.3834 10.6001V10.8251C50.3834 10.8835 50.35 10.9168 50.2917 10.9168H48.375C48.3167 10.9168 48.2834 10.8835 48.2834 10.8251V10.6001C48.2834 10.5418 48.3167 10.5085 48.375 10.5085C48.5334 10.5085 48.6667 10.4835 48.7584 10.4251C48.85 10.3668 48.9167 10.3001 48.9667 10.2251C49.0167 10.1501 49.0417 10.0751 49.0417 10.0001C49.05 9.92512 49.05 9.86678 49.05 9.84178L49.0417 4.31678Z" fill="white"/>
<path d="M58.1 4.3249C58.05 4.29157 58.0417 4.25824 58.0833 4.21658C58.4667 3.84991 58.9167 3.58324 59.4167 3.40824C59.925 3.24157 60.4167 3.1499 60.8917 3.1499C61.9083 3.1499 62.6667 3.3749 63.175 3.80824C63.6833 4.2499 63.9333 4.82491 63.9333 5.54991V9.9249C63.9333 9.9749 63.9333 10.0332 63.9417 10.0999C63.9417 10.1666 63.975 10.2332 64.0167 10.2999C64.0583 10.3666 64.125 10.4249 64.2167 10.4666C64.3 10.5166 64.4333 10.5332 64.6 10.5332C64.6583 10.5332 64.6917 10.5666 64.6917 10.6249V10.8499C64.6917 10.9082 64.6583 10.9416 64.6 10.9416H64.4917C64.25 10.9416 64.0583 10.9082 63.9167 10.8499C63.775 10.7916 63.6667 10.7166 63.6 10.6416C63.5167 10.5499 63.4667 10.4499 63.45 10.3332C63.0917 10.5332 62.6833 10.6999 62.2167 10.8249C61.75 10.9499 61.2833 11.0166 60.8 11.0166C60.2833 11.0166 59.8167 10.9499 59.4 10.8082C58.9833 10.6666 58.625 10.4916 58.325 10.2499C58.025 10.0166 57.8 9.7499 57.6417 9.43324C57.4833 9.1249 57.4083 8.79157 57.4083 8.44157C57.4083 8.08324 57.4833 7.7499 57.6417 7.44157C57.8 7.13324 58.025 6.85824 58.325 6.6249C58.625 6.39157 58.9833 6.20824 59.4 6.06657C59.8167 5.93324 60.2833 5.86657 60.8 5.86657C61 5.86657 61.2167 5.88324 61.45 5.90824C61.6833 5.93324 61.9167 5.98324 62.1417 6.0249C62.3667 6.0749 62.5917 6.13324 62.8 6.19157C63.0083 6.2499 63.1917 6.31657 63.35 6.39157V5.5749C63.35 4.99157 63.125 4.51657 62.6833 4.16657C62.2333 3.81657 61.6417 3.64157 60.8917 3.64157C60.7417 3.64157 60.5667 3.64991 60.3583 3.67491C60.1583 3.69158 59.9417 3.73324 59.725 3.78324C59.5083 3.83324 59.2833 3.90824 59.0667 3.9999C58.8417 4.09157 58.6333 4.21657 58.4417 4.36657C58.4083 4.38324 58.3833 4.40824 58.3583 4.43324C58.3333 4.45824 58.3 4.45824 58.2583 4.42491L58.1 4.3249ZM63.3583 6.9749C63.2167 6.89157 63.0417 6.81657 62.8333 6.7499C62.625 6.68324 62.4083 6.6249 62.1833 6.5749C61.9583 6.5249 61.725 6.48324 61.4833 6.4499C61.2417 6.41657 61.0167 6.40824 60.8083 6.40824C60.375 6.40824 59.9833 6.45824 59.6333 6.56657C59.2833 6.6749 58.9917 6.81658 58.7417 7.00824C58.5 7.19158 58.3167 7.40824 58.1833 7.65824C58.0583 7.90824 57.9917 8.1749 57.9917 8.45824C57.9917 8.74157 58.0583 9.00824 58.1833 9.25824C58.3083 9.50824 58.4917 9.7249 58.7417 9.90824C58.9833 10.0916 59.2833 10.2416 59.6333 10.3499C59.9833 10.4582 60.375 10.5082 60.8083 10.5082C61.0333 10.5082 61.2667 10.4916 61.5 10.4666C61.7333 10.4332 61.9667 10.3916 62.2 10.3332C62.425 10.2749 62.6417 10.2082 62.8417 10.1332C63.0417 10.0582 63.2167 9.9749 63.3583 9.88324V6.9749Z" fill="white"/>
<path d="M68.675 11.0249C67.8083 11.0249 67.1416 10.8249 66.7 10.4333C66.25 10.0416 65.9583 9.50827 65.7999 8.84994C65.7833 8.7916 65.7999 8.74994 65.8583 8.72494L66.0583 8.67493C66.1166 8.65827 66.1583 8.67494 66.1833 8.73327C66.3583 9.27494 66.6416 9.69994 67.0416 9.99994C67.4416 10.2999 67.9583 10.4499 68.6 10.4499C68.8916 10.4499 69.175 10.4166 69.4333 10.3416C69.7 10.2666 69.925 10.1749 70.125 10.0416C70.325 9.9166 70.475 9.7666 70.5916 9.58327C70.7083 9.40827 70.7666 9.20827 70.7666 8.99994C70.7666 8.60827 70.65 8.29993 70.4166 8.08327C70.1833 7.8666 69.8916 7.68327 69.5333 7.5416C69.1833 7.39993 68.8 7.27493 68.3833 7.1666C67.975 7.05827 67.5916 6.92493 67.2333 6.75827C66.875 6.5916 66.5833 6.37494 66.35 6.10827C66.1166 5.8416 66 5.46659 66 4.99159C66 4.72493 66.0666 4.48327 66.2 4.24993C66.3333 4.02493 66.5166 3.82493 66.75 3.65826C66.9833 3.49159 67.2583 3.35827 67.575 3.27493C67.8916 3.18327 68.2416 3.1416 68.6333 3.1416C69.3 3.1416 69.8583 3.29993 70.3083 3.60827C70.7583 3.9166 71.075 4.2916 71.2666 4.72493C71.3083 4.78327 71.2833 4.82493 71.2083 4.84993L70.9833 4.90826C70.925 4.90826 70.8833 4.8916 70.875 4.85827C70.7 4.54993 70.425 4.27493 70.0416 4.03326C69.6583 3.78326 69.2 3.65826 68.675 3.65826C68.4 3.65826 68.1416 3.6916 67.8916 3.75827C67.6416 3.82493 67.425 3.9166 67.2333 4.0416C67.0416 4.1666 66.8833 4.30827 66.7666 4.47493C66.65 4.6416 66.5916 4.82493 66.5916 5.0166C66.5916 5.39993 66.7083 5.69993 66.95 5.9166C67.1833 6.12493 67.4833 6.29994 67.8333 6.4416C68.1833 6.57494 68.5666 6.69993 68.9833 6.80827C69.4 6.9166 69.7833 7.04993 70.1333 7.2166C70.4833 7.38327 70.775 7.59993 71.0166 7.87493C71.25 8.14993 71.375 8.52494 71.375 8.99994C71.375 9.3166 71.3 9.5916 71.15 9.8416C71 10.0916 70.8083 10.2999 70.5583 10.4749C70.3083 10.6499 70.025 10.7833 69.7 10.8749C69.3666 10.9833 69.0333 11.0249 68.675 11.0249Z" fill="white"/>
</g>
<defs>
<clipPath id="clip0">
<rect width="88.9167" height="30" fill="white"/>
</clipPath>
</defs>
</svg>
