<?xml version="1.0" encoding="utf-8"?>
<!-- Generator: Adobe Illustrator 23.0.5, SVG Export Plug-In . SVG Version: 6.00 Build 0)  -->
<svg version="1.1" id="Capa_1" xmlns="http://www.w3.org/2000/svg" xmlns:xlink="http://www.w3.org/1999/xlink" x="0px" y="0px"
	 viewBox="0 0 50 50" style="enable-background:new 0 0 50 50;" xml:space="preserve">
<style type="text/css">
	.st0{fill:#FFFFFF;}
	.st1{fill:#ED8E07;}
</style>
<g>
	<g>
		<path class="st0" d="M49.1,36.7l-7-7c-2.5-2.5-6.7-1.5-7.7,1.7c-0.7,2.2-3.2,3.5-5.5,3c-5-1.2-11.7-7.7-13-13
			c-0.7-2.2,0.7-4.7,3-5.5c3.2-1,4.2-5.2,1.7-7.7l-7-7c-2-1.7-5-1.7-6.7,0L2.3,6c-4.7,5,0.5,18.2,12.2,29.9s24.9,17.2,29.9,12.2
			l4.7-4.7C50.9,41.4,50.9,38.4,49.1,36.7z"/>
	</g>
</g>
</svg>
