<?xml version="1.0" encoding="utf-8"?>
<!-- Generator: Adobe Illustrator 23.0.5, SVG Export Plug-In . SVG Version: 6.00 Build 0)  -->
<svg version="1.1" id="Capa_1" xmlns="http://www.w3.org/2000/svg" xmlns:xlink="http://www.w3.org/1999/xlink" x="0px" y="0px"
	 viewBox="0 0 50 50" style="enable-background:new 0 0 50 50;" xml:space="preserve">
<style type="text/css">
	.st0{fill:#F9AF19;}
</style>
<g>
	<g>
		<g>
			<path class="st0" d="M25,18.1c-3.8,0-6.9,3.1-6.9,6.9s3.1,6.9,6.9,6.9s6.9-3.1,6.9-6.9S28.8,18.1,25,18.1z"/>
			<path class="st0" d="M25,7.8C13.5,7.8,3.7,14.9-0.2,25c4,10.1,13.8,17.2,25.2,17.2c11.5,0,21.3-7.1,25.2-17.2
				C46.3,14.9,36.5,7.8,25,7.8z M25,36.5c-6.3,0-11.5-5.1-11.5-11.5S18.7,13.5,25,13.5S36.5,18.7,36.5,25S31.3,36.5,25,36.5z"/>
		</g>
	</g>
</g>
</svg>
