<svg width="26" height="26" viewBox="0 0 26 26" fill="none" xmlns="http://www.w3.org/2000/svg">
<g clip-path="url(#clip0)">
<path d="M1.34349 26.0001C1.00101 26.0001 0.658525 25.8698 0.398315 25.6076C-0.124064 25.0853 -0.124064 24.2383 0.398315 23.716L23.7225 0.391784C24.2449 -0.130595 25.0918 -0.130595 25.6142 0.391784C26.1366 0.914162 26.1366 1.76107 25.6142 2.28377L2.29031 25.6076C2.02814 25.8682 1.68565 26.0001 1.34349 26.0001V26.0001Z" fill="#FAFAFA"/>
<path d="M24.6693 26.0001C24.3269 26.0001 23.9847 25.8698 23.7242 25.6076L0.398315 2.28377C-0.124064 1.76107 -0.124064 0.914162 0.398315 0.391784C0.920693 -0.130595 1.7676 -0.130595 2.29031 0.391784L25.6142 23.716C26.1366 24.2383 26.1366 25.0853 25.6142 25.6076C25.352 25.8682 25.0099 26.0001 24.6693 26.0001Z" fill="#FAFAFA"/>
</g>
<defs>
<clipPath id="clip0">
<rect width="26" height="26" fill="white"/>
</clipPath>
</defs>
</svg>
