<svg width="12" height="12" viewBox="0 0 12 12" fill="none" xmlns="http://www.w3.org/2000/svg">
<path d="M6 0C2.688 0 0 2.688 0 6C0 9.312 2.688 12 6 12C9.312 12 12 9.312 12 6C12 2.688 9.312 0 6 0Z" fill="#2196F3"/>
<path d="M9.04796 4.72801L5.78396 7.96801C5.68796 8.06401 5.56796 8.11201 5.42396 8.11201C5.27996 8.11201 5.15996 8.06401 5.06396 7.96801L3.43196 6.33601C3.23996 6.14401 3.23996 5.83201 3.43196 5.64001C3.62396 5.44801 3.93596 5.44801 4.12796 5.64001L5.39996 6.91201L8.30396 4.00801C8.49596 3.81601 8.80796 3.81601 8.99996 4.00801C9.23996 4.22401 9.23996 4.53601 9.04796 4.72801Z" fill="#FAFAFA"/>
</svg>
