<?xml version="1.0" encoding="utf-8"?>
<!-- Generator: Adobe Illustrator 23.0.5, SVG Export Plug-In . SVG Version: 6.00 Build 0)  -->
<svg version="1.1" id="Capa_1" xmlns="http://www.w3.org/2000/svg" xmlns:xlink="http://www.w3.org/1999/xlink" x="0px" y="0px"
	 viewBox="0 0 50 50" style="enable-background:new 0 0 50 50;" xml:space="preserve">
<style type="text/css">
	.st0{fill:#FFFFFF;}
	.st1{fill:#ED8E07;}
</style>
<circle class="st0" cx="25" cy="25" r="25"/>
<path class="st1" d="M40.3,18c-0.1-1.7-0.3-2.9-0.7-3.9c-0.4-1.1-1-2-1.8-2.8c-0.8-0.8-1.8-1.4-2.8-1.8c-1-0.4-2.2-0.7-3.9-0.7
	c-1.7-0.1-2.2-0.1-6.6-0.1s-4.9,0-6.6,0.1C16.2,8.8,15,9,14,9.4c-1.1,0.4-2,1-2.8,1.8c-0.8,0.8-1.4,1.8-1.8,2.8
	c-0.4,1-0.7,2.2-0.7,3.9c-0.1,1.7-0.1,2.2-0.1,6.6c0,4.3,0,4.9,0.1,6.6c0.1,1.7,0.3,2.9,0.7,3.9c0.4,1.1,1,2,1.8,2.8
	c0.8,0.8,1.8,1.4,2.8,1.8c1,0.4,2.2,0.7,3.9,0.7c1.7,0.1,2.2,0.1,6.6,0.1s4.9,0,6.6-0.1c1.7-0.1,2.9-0.3,3.9-0.7
	c2.1-0.8,3.8-2.5,4.7-4.7c0.4-1,0.7-2.2,0.7-3.9c0.1-1.7,0.1-2.2,0.1-6.6C40.4,20.2,40.3,19.7,40.3,18z M37.4,30.9
	c-0.1,1.6-0.3,2.4-0.5,3c-0.5,1.4-1.6,2.5-3,3c-0.6,0.2-1.4,0.5-3,0.5c-1.7,0.1-2.2,0.1-6.4,0.1c-4.2,0-4.8,0-6.4-0.1
	c-1.6-0.1-2.4-0.3-3-0.5c-0.7-0.3-1.3-0.7-1.8-1.2c-0.5-0.5-0.9-1.1-1.2-1.8c-0.2-0.6-0.5-1.4-0.5-3c-0.1-1.7-0.1-2.2-0.1-6.4
	c0-4.2,0-4.8,0.1-6.4c0.1-1.6,0.3-2.4,0.5-3c0.3-0.7,0.7-1.3,1.2-1.8c0.5-0.5,1.1-0.9,1.8-1.2c0.6-0.2,1.4-0.5,3-0.5
	c1.7-0.1,2.2-0.1,6.4-0.1h0c4.2,0,4.8,0,6.4,0.1c1.6,0.1,2.4,0.3,3,0.5c0.7,0.3,1.3,0.7,1.8,1.2c0.5,0.5,0.9,1.1,1.2,1.8
	c0.2,0.6,0.5,1.4,0.5,3c0.1,1.7,0.1,2.2,0.1,6.4C37.5,28.8,37.5,29.3,37.4,30.9z"/>
<path class="st1" d="M24.4,16.3c-4.5,0-8.2,3.7-8.2,8.2s3.7,8.2,8.2,8.2c4.5,0,8.2-3.7,8.2-8.2S29,16.3,24.4,16.3z M24.4,29.8
	c-2.9,0-5.3-2.4-5.3-5.3c0-2.9,2.4-5.3,5.3-5.3c2.9,0,5.3,2.4,5.3,5.3C29.7,27.4,27.4,29.8,24.4,29.8z"/>
<path class="st1" d="M34.8,16c0,1.1-0.9,1.9-1.9,1.9c-1.1,0-1.9-0.9-1.9-1.9c0-1.1,0.9-1.9,1.9-1.9C34,14.1,34.8,15,34.8,16z"/>
</svg>
