<?xml version="1.0" encoding="utf-8"?>
<!-- Generator: Adobe Illustrator 23.0.5, SVG Export Plug-In . SVG Version: 6.00 Build 0)  -->
<svg version="1.1" id="Capa_1" xmlns="http://www.w3.org/2000/svg" xmlns:xlink="http://www.w3.org/1999/xlink" x="0px" y="0px"
	 viewBox="0 0 50 50" style="enable-background:new 0 0 50 50;" xml:space="preserve">
<style type="text/css">
	.st0{fill:#2196F3;}
	.st1{fill:#FAFAFA;}
</style>
<path class="st0" d="M25,0C11.2,0,0,11.2,0,25s11.2,25,25,25s25-11.2,25-25S38.8,0,25,0z"/>
<path class="st1" d="M37.7,19.7L24.1,33.2c-0.4,0.4-0.9,0.6-1.5,0.6s-1.1-0.2-1.5-0.6l-6.8-6.8c-0.8-0.8-0.8-2.1,0-2.9
	c0.8-0.8,2.1-0.8,2.9,0l5.3,5.3l12.1-12.1c0.8-0.8,2.1-0.8,2.9,0C38.5,17.6,38.5,18.9,37.7,19.7z"/>
</svg>
