<svg width="16" height="16" viewBox="0 0 16 16" fill="none" xmlns="http://www.w3.org/2000/svg">
<g clip-path="url(#clip0)">
<path d="M8 -0.0640869C3.584 -0.0640869 0 3.51991 0 7.93591C0 9.69591 0.576 11.2959 1.536 12.6399L0.544 15.6159L3.616 14.6239C4.896 15.4559 6.4 15.9359 8.032 15.9359C12.448 15.9359 16.032 12.3519 16.032 7.93591C16.032 3.51991 12.416 -0.0640869 8 -0.0640869ZM12.672 11.2319C12.48 11.7759 11.712 12.2239 11.104 12.3519C10.688 12.4479 10.144 12.5119 8.288 11.7439C5.952 10.7839 4.416 8.38391 4.32 8.22391C4.192 8.06391 3.36 6.94391 3.36 5.82391C3.36 4.70391 3.936 4.12791 4.192 3.87191C4.384 3.67991 4.704 3.58391 5.024 3.58391C5.12 3.58391 5.216 3.58391 5.28 3.58391C5.504 3.58391 5.632 3.61591 5.792 3.96791C5.984 4.44791 6.464 5.56791 6.496 5.69591C6.56 5.82391 6.624 5.98391 6.528 6.14391C6.464 6.30391 6.4 6.36791 6.272 6.49591C6.144 6.62391 6.048 6.75191 5.92 6.87991C5.824 7.00791 5.696 7.13591 5.824 7.39191C5.952 7.61591 6.432 8.38391 7.136 8.99191C8.032 9.79191 8.768 10.0479 9.024 10.1439C9.216 10.2399 9.44 10.2079 9.6 10.0479C9.792 9.85591 10.016 9.53591 10.24 9.21591C10.4 8.99191 10.592 8.95991 10.816 9.05591C11.04 9.11991 12.16 9.69591 12.416 9.82391C12.64 9.95191 12.8 9.98391 12.864 10.1119C12.864 10.2399 12.864 10.6879 12.672 11.2319Z" fill="#454545"/>
</g>
<defs>
<clipPath id="clip0">
<rect width="16" height="16" fill="white"/>
</clipPath>
</defs>
</svg>
