<svg width="16" height="16" viewBox="0 0 16 16" fill="none" xmlns="http://www.w3.org/2000/svg">
<path d="M8 0C3.58875 0 0 3.58875 0 8C0 12.4113 3.58875 16 8 16C12.4113 16 16 12.4113 16 8C16 3.58875 12.4113 0 8 0ZM11.8047 12.1378C11.7429 12.1998 11.6694 12.249 11.5886 12.2826C11.5077 12.3162 11.421 12.3335 11.3334 12.3335C11.2459 12.3335 11.1592 12.3162 11.0783 12.2826C10.9974 12.249 10.924 12.1998 10.8622 12.1378L7.52875 8.80469C7.46674 8.74289 7.41756 8.66944 7.38404 8.58856C7.35052 8.50769 7.33332 8.42098 7.33344 8.33344V4C7.33344 3.82322 7.40366 3.65367 7.52867 3.52867C7.65367 3.40366 7.82322 3.33344 8 3.33344C8.17678 3.33344 8.34633 3.40366 8.47133 3.52867C8.59634 3.65367 8.66656 3.82322 8.66656 4V8.0575L11.8047 11.1953C11.8666 11.2572 11.9158 11.3306 11.9493 11.4115C11.9828 11.4923 12.0001 11.579 12.0001 11.6666C12.0001 11.7541 11.9828 11.8408 11.9493 11.9216C11.9158 12.0025 11.8666 12.076 11.8047 12.1378Z" fill="#454545"/>
</svg>
