<?xml version="1.0" encoding="utf-8"?>
<!-- Generator: Adobe Illustrator 23.0.5, SVG Export Plug-In . SVG Version: 6.00 Build 0)  -->
<svg version="1.1" id="Capa_1" xmlns="http://www.w3.org/2000/svg" xmlns:xlink="http://www.w3.org/1999/xlink" x="0px" y="0px"
	 viewBox="0 0 50 50" style="enable-background:new 0 0 50 50;" xml:space="preserve">
<style type="text/css">
	.st0{fill:#454545;}
</style>
<g>
	<g>
		<polygon class="st0" points="32.6,25.3 49.1,35.7 49.1,14.3 		"/>
	</g>
</g>
<g>
	<g>
		<polygon class="st0" points="0,14.1 0,35.9 16.9,25.3 		"/>
	</g>
</g>
<g>
	<g>
		<path class="st0" d="M47,7.8H3.1c-1.6,0-2.8,1.2-3,2.7l25,16.4l25-16.4C49.8,8.9,48.5,7.8,47,7.8z"/>
	</g>
</g>
<g>
	<g>
		<path class="st0" d="M30.3,27.1l-4.4,2.9c-0.3,0.2-0.6,0.3-0.9,0.3s-0.6-0.1-0.9-0.3l-4.4-2.9L0.1,39.6c0.2,1.5,1.5,2.6,3,2.6H47
			c1.6,0,2.8-1.2,3-2.6L30.3,27.1z"/>
	</g>
</g>
</svg>
