<?xml version="1.0" encoding="utf-8"?>
<!-- Generator: Adobe Illustrator 23.0.5, SVG Export Plug-In . SVG Version: 6.00 Build 0)  -->
<svg version="1.1" id="Capa_1" xmlns="http://www.w3.org/2000/svg" xmlns:xlink="http://www.w3.org/1999/xlink" x="0px" y="0px"
	 viewBox="0 0 50 50" style="enable-background:new 0 0 50 50;" xml:space="preserve">
<style type="text/css">
	.st0{fill:#FFFFFF;}
	.st1{fill:#ED8E07;}
	.st2{fill:#454545;}
</style>
<path class="st2" d="M25,0C15.4,0,7.6,7.8,7.6,17.4C7.6,29.4,25,50,25,50s17.4-21.2,17.4-32.6C42.4,7.8,34.6,0,25,0z M30.2,22.5
	c-1.4,1.4-3.3,2.2-5.2,2.2c-1.9,0-3.8-0.7-5.2-2.2c-2.9-2.9-2.9-7.6,0-10.5c1.4-1.4,3.3-2.2,5.2-2.2s3.8,0.8,5.2,2.2
	C33.1,14.9,33.1,19.6,30.2,22.5z"/>
</svg>
