<svg width="34" height="34" viewBox="0 0 34 34" fill="none" xmlns="http://www.w3.org/2000/svg">
<path d="M17 34C26.3888 34 34 26.3888 34 17C34 7.61116 26.3888 0 17 0C7.61116 0 0 7.61116 0 17C0 26.3888 7.61116 34 17 34Z" fill="white"/>
<path d="M27.404 12.24C27.336 11.084 27.2 10.268 26.928 9.58802C26.656 8.84002 26.248 8.22802 25.704 7.68402C25.16 7.14002 24.48 6.73202 23.8 6.46002C23.12 6.18802 22.304 5.98402 21.148 5.98402C19.992 5.91602 19.652 5.91602 16.66 5.91602C13.668 5.91602 13.328 5.91602 12.172 5.98402C11.016 5.98402 10.2 6.12002 9.52002 6.39202C8.77202 6.66402 8.16002 7.07202 7.61602 7.61602C7.07202 8.16002 6.66402 8.84002 6.39202 9.52002C6.12002 10.2 5.91602 11.016 5.91602 12.172C5.84802 13.328 5.84802 13.668 5.84802 16.66C5.84802 19.584 5.84802 19.992 5.91602 21.148C5.98402 22.304 6.12002 23.12 6.39202 23.8C6.66402 24.548 7.07202 25.16 7.61602 25.704C8.16002 26.248 8.84002 26.656 9.52002 26.928C10.2 27.2 11.016 27.404 12.172 27.404C13.328 27.472 13.668 27.472 16.66 27.472C19.652 27.472 19.992 27.472 21.148 27.404C22.304 27.336 23.12 27.2 23.8 26.928C25.228 26.384 26.384 25.228 26.996 23.732C27.268 23.052 27.472 22.236 27.472 21.08C27.54 19.924 27.54 19.584 27.54 16.592C27.472 13.736 27.404 13.396 27.404 12.24ZM25.432 21.012C25.364 22.1 25.228 22.644 25.092 23.052C24.752 24.004 24.004 24.752 23.052 25.092C22.644 25.228 22.1 25.432 21.012 25.432C19.856 25.5 19.516 25.5 16.66 25.5C13.804 25.5 13.396 25.5 12.308 25.432C11.22 25.364 10.676 25.228 10.268 25.092C9.79202 24.888 9.38402 24.616 9.04402 24.276C8.70402 23.936 8.43202 23.528 8.22802 23.052C8.09202 22.644 7.88802 22.1 7.88802 21.012C7.82002 19.856 7.82002 19.516 7.82002 16.66C7.82002 13.804 7.82002 13.396 7.88802 12.308C7.95602 11.22 8.09202 10.676 8.22802 10.268C8.43202 9.79202 8.70402 9.38402 9.04402 9.04402C9.38402 8.70402 9.79202 8.43202 10.268 8.22802C10.676 8.09202 11.22 7.88802 12.308 7.88802C13.464 7.82002 13.804 7.82002 16.66 7.82002C19.516 7.82002 19.924 7.82002 21.012 7.88802C22.1 7.95602 22.644 8.09202 23.052 8.22802C23.528 8.43202 23.936 8.70402 24.276 9.04402C24.616 9.38402 24.888 9.79202 25.092 10.268C25.228 10.676 25.432 11.22 25.432 12.308C25.5 13.464 25.5 13.804 25.5 16.66C25.5 19.584 25.5 19.924 25.432 21.012Z" fill="#ED8E07"/>
<path d="M16.592 11.084C13.532 11.084 11.016 13.6 11.016 16.66C11.016 19.72 13.532 22.236 16.592 22.236C19.652 22.236 22.168 19.72 22.168 16.66C22.168 13.6 19.72 11.084 16.592 11.084ZM16.592 20.264C14.62 20.264 12.988 18.632 12.988 16.66C12.988 14.688 14.62 13.056 16.592 13.056C18.564 13.056 20.196 14.688 20.196 16.66C20.196 18.632 18.632 20.264 16.592 20.264Z" fill="#ED8E07"/>
<path d="M23.664 10.8799C23.664 11.6279 23.052 12.1719 22.372 12.1719C21.624 12.1719 21.08 11.5599 21.08 10.8799C21.08 10.1319 21.692 9.58789 22.372 9.58789C23.12 9.58789 23.664 10.1999 23.664 10.8799Z" fill="#ED8E07"/>
</svg>
