<?xml version="1.0" encoding="utf-8"?>
<!-- Generator: Adobe Illustrator 23.0.5, SVG Export Plug-In . SVG Version: 6.00 Build 0)  -->
<svg version="1.1" id="Capa_1" xmlns="http://www.w3.org/2000/svg" xmlns:xlink="http://www.w3.org/1999/xlink" x="0px" y="0px"
	 viewBox="0 0 50 50" style="enable-background:new 0 0 50 50;" xml:space="preserve">
<style type="text/css">
	.st0{fill:#FFFFFF;}
	.st1{fill:#ED8E07;}
</style>
<path class="st0" d="M47.9,27.1H2.1C0.9,27.1,0,26.2,0,25c0-1.2,0.9-2.1,2.1-2.1h45.8c1.2,0,2.1,0.9,2.1,2.1
	C50,26.2,49.1,27.1,47.9,27.1z"/>
<path class="st0" d="M47.9,11.1H2.1C0.9,11.1,0,10.2,0,9s0.9-2.1,2.1-2.1h45.8C49.1,6.9,50,7.9,50,9S49.1,11.1,47.9,11.1z"/>
<path class="st0" d="M47.9,43.1H2.1C0.9,43.1,0,42.1,0,41s0.9-2.1,2.1-2.1h45.8c1.2,0,2.1,0.9,2.1,2.1S49.1,43.1,47.9,43.1z"/>
</svg>
