<svg width="34" height="34" viewBox="0 0 34 34" fill="none" xmlns="http://www.w3.org/2000/svg">
<path d="M17 34C26.3888 34 34 26.3888 34 17C34 7.61115 26.3888 0 17 0C7.61115 0 0 7.61115 0 17C0 26.3888 7.61115 34 17 34Z" fill="white"/>
<path d="M19.924 8.56805H22.236V4.55605C21.828 4.48805 20.468 4.35205 18.904 4.35205C15.572 4.35205 13.3281 6.46005 13.3281 10.2681V13.8041H9.65607V18.36H13.3281V29.648H17.816V18.36H21.352L21.896 13.872H17.816V10.812C17.816 9.45205 18.156 8.56805 19.924 8.56805Z" fill="#ED8E07"/>
</svg>
