<svg width="16" height="16" viewBox="0 0 16 16" fill="none" xmlns="http://www.w3.org/2000/svg">
<path d="M12.3488 1.86239C12.2528 1.95519 12.16 2.04159 12.0704 2.13119C11.5296 2.67199 10.992 3.21279 10.4512 3.75039C10.4032 3.79519 10.3968 3.83679 10.4128 3.89759C10.5248 4.33599 10.6336 4.77759 10.7424 5.21919C10.7552 5.27039 10.7776 5.29279 10.8288 5.30559C11.2704 5.41439 11.7088 5.52319 12.1504 5.63519C12.2144 5.65119 12.2528 5.64159 12.2976 5.59359C12.9056 4.98239 13.5168 4.37439 14.1248 3.76319C14.144 3.74399 14.1536 3.71199 14.1664 3.68319C14.1824 3.68959 14.1984 3.69599 14.2144 3.70239C14.2816 3.98079 14.368 4.25599 14.4096 4.53439C14.544 5.46559 14.3328 6.31999 13.7696 7.07519C13.1488 7.90399 12.3104 8.36479 11.2768 8.45759C10.9216 8.48959 10.576 8.44799 10.2304 8.35839C10.176 8.34559 10.1408 8.35199 10.096 8.39359C8.83522 9.65759 7.57442 10.9184 6.31362 12.1792C6.28482 12.2112 6.25922 12.2592 6.25602 12.304C6.17602 13.4368 5.26402 14.368 4.13122 14.4704C2.88642 14.5824 1.76002 13.6992 1.57762 12.4672C1.38242 11.1296 2.35842 9.90079 3.70882 9.78879C3.77602 9.78239 3.82722 9.75999 3.87522 9.71199C5.12642 8.45759 6.37762 7.20639 7.63202 5.95519C7.68002 5.90719 7.69282 5.86879 7.67682 5.80159C7.20322 4.00319 8.38722 2.02879 10.3744 1.65119C10.976 1.53599 11.568 1.59039 12.1472 1.78239C12.2048 1.80159 12.2656 1.82079 12.3232 1.83679C12.3296 1.84319 12.3328 1.84959 12.3488 1.86239ZM11.4976 2.12799C11.488 2.11519 11.4816 2.09919 11.472 2.08639C11.3152 2.06719 11.1616 2.02879 11.0048 2.02879C10.5504 2.02559 10.1152 2.12479 9.70562 2.32319C8.35842 2.97279 7.70562 4.47359 8.13762 5.91999C8.16322 6.00319 8.15042 6.05119 8.08962 6.11519C6.75522 7.44639 5.42402 8.77759 4.09282 10.112C4.03202 10.1728 3.97442 10.2016 3.88802 10.1952C3.82722 10.1888 3.76322 10.1952 3.70242 10.2048C2.64962 10.3328 1.91362 11.2288 1.99362 12.2848C2.06402 13.2096 2.80002 13.9616 3.72162 14.0512C4.87362 14.1632 5.84642 13.2768 5.85282 12.1152C5.85282 12.0736 5.87202 12.0192 5.90402 11.9904C7.25442 10.6368 8.60802 9.28319 9.95842 7.92959C9.99682 7.89119 10.032 7.88479 10.0864 7.89759C10.2912 7.94559 10.4928 8.00319 10.7008 8.02559C11.6064 8.11519 12.4 7.84959 13.0688 7.23199C13.6288 6.71039 13.936 6.05759 14.0096 5.29919C14.0352 5.05279 14.0128 4.81279 13.9296 4.55999C13.904 4.57919 13.8944 4.61439 13.872 4.63359C13.3888 5.11679 12.9056 5.59999 12.4256 6.08319C12.384 6.12479 12.3488 6.13439 12.2912 6.11839C11.6864 5.96479 11.0816 5.81439 10.4768 5.66399C10.4224 5.65119 10.3968 5.62559 10.384 5.57119C10.2336 4.96639 10.0832 4.36159 9.92962 3.75679C9.91362 3.69919 9.92642 3.66399 9.96802 3.62239C10.4544 3.13919 10.9376 2.65279 11.424 2.16959C11.44 2.15039 11.472 2.14079 11.4976 2.12799Z" fill="white"/>
<path d="M5.20642 12.128C5.20642 12.2848 5.20962 12.4384 5.20322 12.5952C5.20322 12.6304 5.18402 12.6752 5.16162 12.6976C4.94082 12.9216 4.72002 13.1456 4.49602 13.3632C4.47042 13.3888 4.42882 13.4048 4.39042 13.408C4.07362 13.4112 3.75682 13.4112 3.44002 13.408C3.40802 13.408 3.36642 13.392 3.34402 13.3664C3.11682 13.1456 2.89282 12.9216 2.67202 12.6944C2.64642 12.6688 2.63042 12.624 2.63042 12.5888C2.62722 12.2752 2.62722 11.9616 2.63042 11.6448C2.63042 11.6096 2.64962 11.568 2.67522 11.5424C2.89602 11.3184 3.11682 11.0944 3.34082 10.8768C3.36642 10.8512 3.41442 10.832 3.45282 10.832C3.76322 10.8288 4.07682 10.8288 4.38722 10.832C4.42562 10.832 4.47042 10.8512 4.49922 10.8768C4.72322 11.0944 4.94082 11.3152 5.15842 11.5392C5.18402 11.5648 5.20322 11.6128 5.20322 11.6512C5.20962 11.8112 5.20642 11.9712 5.20642 12.128ZM4.76162 12.1216C4.84482 11.8592 4.72962 11.6704 4.52802 11.52C4.52482 11.5168 4.52482 11.5168 4.52162 11.5136C4.43842 11.4304 4.36482 11.3184 4.26562 11.2768C4.16642 11.2352 4.03842 11.264 3.92322 11.264C3.80482 11.264 3.67362 11.232 3.57122 11.2768C3.46882 11.3216 3.39522 11.4368 3.30882 11.52C3.22562 11.6 3.11362 11.6704 3.07522 11.7696C3.03362 11.872 3.06242 12.0032 3.06242 12.1184C3.06242 12.24 3.03362 12.3712 3.07522 12.4768C3.11682 12.5792 3.23202 12.6496 3.31522 12.7328C3.39842 12.816 3.47202 12.928 3.57122 12.9728C3.67362 13.0144 3.80482 12.9856 3.92322 12.9856C4.03842 12.9856 4.16642 13.0144 4.26562 12.9728C4.36802 12.9312 4.43202 12.8096 4.52482 12.736C4.72322 12.576 4.84802 12.3904 4.76162 12.1216Z" fill="white"/>
</svg>
